<svg version="1.1" id="Layer_1" xmlns="http://www.w3.org/2000/svg" xmlns:xlink="http://www.w3.org/1999/xlink" x="0px" y="0px" viewBox="0 0 50 50" style="enable-background:new 0 0 50 50;" xml:space="preserve">
	<style type="text/css">
		.discord-icon{fill:#5865F2;}
	</style>
	<path class="discord-icon" d="M39.6,10.9c-2.8-1.3-5.9-2.3-9.1-2.9c-0.4,0.7-0.8,1.7-1.2,2.4c-3.4-0.5-6.7-0.5-10.1,0C19,9.7,18.6,8.7,18.2,8
		c-3.2,0.6-6.2,1.5-9.1,2.9C3.3,19.6,1.8,28,2.6,36.4c3.8,2.8,7.5,4.6,11.1,5.7c0.9-1.2,1.7-2.5,2.4-3.9c-1.3-0.5-2.6-1.1-3.8-1.8
		c0.3-0.2,0.6-0.5,0.9-0.7c7.2,3.4,15.1,3.4,22.3,0c0.3,0.3,0.6,0.5,0.9,0.7c-1.2,0.7-2.5,1.3-3.8,1.8c0.7,1.4,1.5,2.7,2.4,3.9
		c3.6-1.1,7.3-2.9,11.1-5.7C47.1,26.7,44.6,18.3,39.6,10.9z M17.1,31.2c-2.2,0-4-2-4-4.5c0-2.5,1.7-4.5,4-4.5c2.2,0,4,2,4,4.5
		C21,29.2,19.3,31.2,17.1,31.2z M31.7,31.2c-2.2,0-4-2-4-4.5c0-2.5,1.7-4.5,4-4.5c2.2,0,4,2,4,4.5C35.6,29.2,33.9,31.2,31.7,31.2z"/>
</svg>
